<svg id="visual" viewBox="0 0 1920 1080" width="1920" height="1080" xmlns="http://www.w3.org/2000/svg" xmlns:xlink="http://www.w3.org/1999/xlink" version="1.1"><path d="M0 950L18.8 946.8C37.7 943.7 75.3 937.3 113 933.7C150.7 930 188.3 929 226 931.2C263.7 933.3 301.3 938.7 339 947.2C376.7 955.7 414.3 967.3 452 960.8C489.7 954.3 527.3 929.7 565 923C602.7 916.3 640.3 927.7 678 939.3C715.7 951 753.3 963 791 946.2C828.7 929.3 866.3 883.7 903.8 884.2C941.3 884.7 978.7 931.3 1016.2 947.5C1053.7 963.7 1091.3 949.3 1129 925.8C1166.7 902.3 1204.3 869.7 1242 864.8C1279.7 860 1317.3 883 1355 905C1392.7 927 1430.3 948 1468 955.2C1505.7 962.3 1543.3 955.7 1581 944.3C1618.7 933 1656.3 917 1694 919C1731.7 921 1769.3 941 1807 951.7C1844.7 962.3 1882.3 963.7 1901.2 964.3L1920 965L1920 1081L1901.2 1081C1882.3 1081 1844.7 1081 1807 1081C1769.3 1081 1731.7 1081 1694 1081C1656.3 1081 1618.7 1081 1581 1081C1543.3 1081 1505.7 1081 1468 1081C1430.3 1081 1392.7 1081 1355 1081C1317.3 1081 1279.7 1081 1242 1081C1204.3 1081 1166.7 1081 1129 1081C1091.3 1081 1053.7 1081 1016.2 1081C978.7 1081 941.3 1081 903.8 1081C866.3 1081 828.7 1081 791 1081C753.3 1081 715.7 1081 678 1081C640.3 1081 602.7 1081 565 1081C527.3 1081 489.7 1081 452 1081C414.3 1081 376.7 1081 339 1081C301.3 1081 263.7 1081 226 1081C188.3 1081 150.7 1081 113 1081C75.3 1081 37.7 1081 18.8 1081L0 1081Z" fill="#110011" stroke-linecap="round" stroke-linejoin="miter"></path></svg>