<svg id="visual" viewBox="0 0 1920 1080" width="1920" height="1080" xmlns="http://www.w3.org/2000/svg" xmlns:xlink="http://www.w3.org/1999/xlink" version="1.1"><path d="M0 656L45.7 679.3C91.3 702.7 182.7 749.3 274.2 755C365.7 760.7 457.3 725.3 548.8 724.2C640.3 723 731.7 756 823 761.3C914.3 766.7 1005.7 744.3 1097 734.3C1188.3 724.3 1279.7 726.7 1371.2 714C1462.7 701.3 1554.3 673.7 1645.8 672.3C1737.3 671 1828.7 696 1874.3 708.5L1920 721L1920 1081L1874.3 1081C1828.7 1081 1737.3 1081 1645.8 1081C1554.3 1081 1462.7 1081 1371.2 1081C1279.7 1081 1188.3 1081 1097 1081C1005.7 1081 914.3 1081 823 1081C731.7 1081 640.3 1081 548.8 1081C457.3 1081 365.7 1081 274.2 1081C182.7 1081 91.3 1081 45.7 1081L0 1081Z" fill="#fa7268"></path><path d="M0 775L45.7 780.5C91.3 786 182.7 797 274.2 797.8C365.7 798.7 457.3 789.3 548.8 789C640.3 788.7 731.7 797.3 823 791.3C914.3 785.3 1005.7 764.7 1097 753.3C1188.3 742 1279.7 740 1371.2 739.8C1462.7 739.7 1554.3 741.3 1645.8 742.8C1737.3 744.3 1828.7 745.7 1874.3 746.3L1920 747L1920 1081L1874.3 1081C1828.7 1081 1737.3 1081 1645.8 1081C1554.3 1081 1462.7 1081 1371.2 1081C1279.7 1081 1188.3 1081 1097 1081C1005.7 1081 914.3 1081 823 1081C731.7 1081 640.3 1081 548.8 1081C457.3 1081 365.7 1081 274.2 1081C182.7 1081 91.3 1081 45.7 1081L0 1081Z" fill="#ef5f67"></path><path d="M0 836L45.7 835.7C91.3 835.3 182.7 834.7 274.2 842.5C365.7 850.3 457.3 866.7 548.8 878.3C640.3 890 731.7 897 823 901.3C914.3 905.7 1005.7 907.3 1097 905.2C1188.3 903 1279.7 897 1371.2 879.7C1462.7 862.3 1554.3 833.7 1645.8 834.5C1737.3 835.3 1828.7 865.7 1874.3 880.8L1920 896L1920 1081L1874.3 1081C1828.7 1081 1737.3 1081 1645.8 1081C1554.3 1081 1462.7 1081 1371.2 1081C1279.7 1081 1188.3 1081 1097 1081C1005.7 1081 914.3 1081 823 1081C731.7 1081 640.3 1081 548.8 1081C457.3 1081 365.7 1081 274.2 1081C182.7 1081 91.3 1081 45.7 1081L0 1081Z" fill="#e34c67"></path><path d="M0 917L45.7 916.3C91.3 915.7 182.7 914.3 274.2 908C365.7 901.7 457.3 890.3 548.8 884.7C640.3 879 731.7 879 823 886.7C914.3 894.3 1005.7 909.7 1097 913.7C1188.3 917.7 1279.7 910.3 1371.2 905.8C1462.7 901.3 1554.3 899.7 1645.8 909.8C1737.3 920 1828.7 942 1874.3 953L1920 964L1920 1081L1874.3 1081C1828.7 1081 1737.3 1081 1645.8 1081C1554.3 1081 1462.7 1081 1371.2 1081C1279.7 1081 1188.3 1081 1097 1081C1005.7 1081 914.3 1081 823 1081C731.7 1081 640.3 1081 548.8 1081C457.3 1081 365.7 1081 274.2 1081C182.7 1081 91.3 1081 45.7 1081L0 1081Z" fill="#d53867"></path><path d="M0 998L45.7 997C91.3 996 182.7 994 274.2 987.5C365.7 981 457.3 970 548.8 962.5C640.3 955 731.7 951 823 959.5C914.3 968 1005.7 989 1097 991.2C1188.3 993.3 1279.7 976.7 1371.2 972.2C1462.7 967.7 1554.3 975.3 1645.8 977.5C1737.3 979.7 1828.7 976.3 1874.3 974.7L1920 973L1920 1081L1874.3 1081C1828.7 1081 1737.3 1081 1645.8 1081C1554.3 1081 1462.7 1081 1371.2 1081C1279.7 1081 1188.3 1081 1097 1081C1005.7 1081 914.3 1081 823 1081C731.7 1081 640.3 1081 548.8 1081C457.3 1081 365.7 1081 274.2 1081C182.7 1081 91.3 1081 45.7 1081L0 1081Z" fill="#c62368"></path></svg>