<svg id="visual" viewBox="0 0 1920 1080" width="1920" height="1080" xmlns="http://www.w3.org/2000/svg" xmlns:xlink="http://www.w3.org/1999/xlink" version="1.1"><path d="M0 398L45.7 398.8C91.3 399.7 182.7 401.3 274.2 380.8C365.7 360.3 457.3 317.7 548.8 319.2C640.3 320.7 731.7 366.3 823 380.5C914.3 394.7 1005.7 377.3 1097 381.5C1188.3 385.7 1279.7 411.3 1371.2 402.2C1462.7 393 1554.3 349 1645.8 336.8C1737.3 324.7 1828.7 344.3 1874.3 354.2L1920 364L1920 0L1874.3 0C1828.7 0 1737.3 0 1645.8 0C1554.3 0 1462.7 0 1371.2 0C1279.7 0 1188.3 0 1097 0C1005.7 0 914.3 0 823 0C731.7 0 640.3 0 548.8 0C457.3 0 365.7 0 274.2 0C182.7 0 91.3 0 45.7 0L0 0Z" fill="#110011"></path><path d="M0 318L45.7 302.5C91.3 287 182.7 256 274.2 262.8C365.7 269.7 457.3 314.3 548.8 326.7C640.3 339 731.7 319 823 318.3C914.3 317.7 1005.7 336.3 1097 322.2C1188.3 308 1279.7 261 1371.2 251.3C1462.7 241.7 1554.3 269.3 1645.8 277C1737.3 284.7 1828.7 272.3 1874.3 266.2L1920 260L1920 0L1874.3 0C1828.7 0 1737.3 0 1645.8 0C1554.3 0 1462.7 0 1371.2 0C1279.7 0 1188.3 0 1097 0C1005.7 0 914.3 0 823 0C731.7 0 640.3 0 548.8 0C457.3 0 365.7 0 274.2 0C182.7 0 91.3 0 45.7 0L0 0Z" fill="#35142e"></path><path d="M0 192L45.7 187.5C91.3 183 182.7 174 274.2 189.2C365.7 204.3 457.3 243.7 548.8 255.5C640.3 267.3 731.7 251.7 823 247.2C914.3 242.7 1005.7 249.3 1097 251.3C1188.3 253.3 1279.7 250.7 1371.2 254.2C1462.7 257.7 1554.3 267.3 1645.8 261.8C1737.3 256.3 1828.7 235.7 1874.3 225.3L1920 215L1920 0L1874.3 0C1828.7 0 1737.3 0 1645.8 0C1554.3 0 1462.7 0 1371.2 0C1279.7 0 1188.3 0 1097 0C1005.7 0 914.3 0 823 0C731.7 0 640.3 0 548.8 0C457.3 0 365.7 0 274.2 0C182.7 0 91.3 0 45.7 0L0 0Z" fill="#601c48"></path><path d="M0 139L45.7 142C91.3 145 182.7 151 274.2 144.8C365.7 138.7 457.3 120.3 548.8 126.2C640.3 132 731.7 162 823 178.7C914.3 195.3 1005.7 198.7 1097 191.8C1188.3 185 1279.7 168 1371.2 153.3C1462.7 138.7 1554.3 126.3 1645.8 130.2C1737.3 134 1828.7 154 1874.3 164L1920 174L1920 0L1874.3 0C1828.7 0 1737.3 0 1645.8 0C1554.3 0 1462.7 0 1371.2 0C1279.7 0 1188.3 0 1097 0C1005.7 0 914.3 0 823 0C731.7 0 640.3 0 548.8 0C457.3 0 365.7 0 274.2 0C182.7 0 91.3 0 45.7 0L0 0Z" fill="#91215c"></path><path d="M0 97L45.7 101.2C91.3 105.3 182.7 113.7 274.2 110C365.7 106.3 457.3 90.7 548.8 91.3C640.3 92 731.7 109 823 116C914.3 123 1005.7 120 1097 114.2C1188.3 108.3 1279.7 99.7 1371.2 98.8C1462.7 98 1554.3 105 1645.8 108.7C1737.3 112.3 1828.7 112.7 1874.3 112.8L1920 113L1920 0L1874.3 0C1828.7 0 1737.3 0 1645.8 0C1554.3 0 1462.7 0 1371.2 0C1279.7 0 1188.3 0 1097 0C1005.7 0 914.3 0 823 0C731.7 0 640.3 0 548.8 0C457.3 0 365.7 0 274.2 0C182.7 0 91.3 0 45.7 0L0 0Z" fill="#c62368"></path></svg>