<svg id="visual" viewBox="0 0 1920 1080" width="1920" height="1080" xmlns="http://www.w3.org/2000/svg" xmlns:xlink="http://www.w3.org/1999/xlink" version="1.1"><path d="M0 680L45.7 679.2C91.3 678.3 182.7 676.7 274.2 697.2C365.7 717.7 457.3 760.3 548.8 758.8C640.3 757.3 731.7 711.7 823 697.5C914.3 683.3 1005.7 700.7 1097 696.5C1188.3 692.3 1279.7 666.7 1371.2 675.8C1462.7 685 1554.3 729 1645.8 741.2C1737.3 753.3 1828.7 733.7 1874.3 723.8L1920 714L1920 1081L1874.3 1081C1828.7 1081 1737.3 1081 1645.8 1081C1554.3 1081 1462.7 1081 1371.2 1081C1279.7 1081 1188.3 1081 1097 1081C1005.7 1081 914.3 1081 823 1081C731.7 1081 640.3 1081 548.8 1081C457.3 1081 365.7 1081 274.2 1081C182.7 1081 91.3 1081 45.7 1081L0 1081Z" fill="#110011"></path><path d="M0 760L45.7 775.5C91.3 791 182.7 822 274.2 815.2C365.7 808.3 457.3 763.7 548.8 751.3C640.3 739 731.7 759 823 759.7C914.3 760.3 1005.7 741.7 1097 755.8C1188.3 770 1279.7 817 1371.2 826.7C1462.7 836.3 1554.3 808.7 1645.8 801C1737.3 793.3 1828.7 805.7 1874.3 811.8L1920 818L1920 1081L1874.3 1081C1828.7 1081 1737.3 1081 1645.8 1081C1554.3 1081 1462.7 1081 1371.2 1081C1279.7 1081 1188.3 1081 1097 1081C1005.7 1081 914.3 1081 823 1081C731.7 1081 640.3 1081 548.8 1081C457.3 1081 365.7 1081 274.2 1081C182.7 1081 91.3 1081 45.7 1081L0 1081Z" fill="#35142e"></path><path d="M0 886L45.7 890.5C91.3 895 182.7 904 274.2 888.8C365.7 873.7 457.3 834.3 548.8 822.5C640.3 810.7 731.7 826.3 823 830.8C914.3 835.3 1005.7 828.7 1097 826.7C1188.3 824.7 1279.7 827.3 1371.2 823.8C1462.7 820.3 1554.3 810.7 1645.8 816.2C1737.3 821.7 1828.7 842.3 1874.3 852.7L1920 863L1920 1081L1874.3 1081C1828.7 1081 1737.3 1081 1645.8 1081C1554.3 1081 1462.7 1081 1371.2 1081C1279.7 1081 1188.3 1081 1097 1081C1005.7 1081 914.3 1081 823 1081C731.7 1081 640.3 1081 548.8 1081C457.3 1081 365.7 1081 274.2 1081C182.7 1081 91.3 1081 45.7 1081L0 1081Z" fill="#601c48"></path><path d="M0 939L45.7 936C91.3 933 182.7 927 274.2 933.2C365.7 939.3 457.3 957.7 548.8 951.8C640.3 946 731.7 916 823 899.3C914.3 882.7 1005.7 879.3 1097 886.2C1188.3 893 1279.7 910 1371.2 924.7C1462.7 939.3 1554.3 951.7 1645.8 947.8C1737.3 944 1828.7 924 1874.3 914L1920 904L1920 1081L1874.3 1081C1828.7 1081 1737.3 1081 1645.8 1081C1554.3 1081 1462.7 1081 1371.2 1081C1279.7 1081 1188.3 1081 1097 1081C1005.7 1081 914.3 1081 823 1081C731.7 1081 640.3 1081 548.8 1081C457.3 1081 365.7 1081 274.2 1081C182.7 1081 91.3 1081 45.7 1081L0 1081Z" fill="#91215c"></path><path d="M0 981L45.7 976.8C91.3 972.7 182.7 964.3 274.2 968C365.7 971.7 457.3 987.3 548.8 986.7C640.3 986 731.7 969 823 962C914.3 955 1005.7 958 1097 963.8C1188.3 969.7 1279.7 978.3 1371.2 979.2C1462.7 980 1554.3 973 1645.8 969.3C1737.3 965.7 1828.7 965.3 1874.3 965.2L1920 965L1920 1081L1874.3 1081C1828.7 1081 1737.3 1081 1645.8 1081C1554.3 1081 1462.7 1081 1371.2 1081C1279.7 1081 1188.3 1081 1097 1081C1005.7 1081 914.3 1081 823 1081C731.7 1081 640.3 1081 548.8 1081C457.3 1081 365.7 1081 274.2 1081C182.7 1081 91.3 1081 45.7 1081L0 1081Z" fill="#c62368"></path></svg>